<?xml version="1.0" standalone="no"?>
<!DOCTYPE svg PUBLIC "-//W3C//DTD SVG 20010904//EN"
 "http://www.w3.org/TR/2001/REC-SVG-20010904/DTD/svg10.dtd">
<svg version="1.0" xmlns="http://www.w3.org/2000/svg"
 width="269.000000pt" height="269.000000pt" viewBox="0 0 269.000000 269.000000"
 preserveAspectRatio="xMidYMid meet">
<metadata>
Created by potrace 1.14, written by Peter Selinger 2001-2017
</metadata>
<g transform="translate(0.000000,269.000000) scale(0.100000,-0.100000)"
fill="#000000" stroke="none">
<path d="M615 2255 c-7 -43 -11 -78 -17 -132 -2 -17 -14 -20 -100 -19 -43 1
-78 -1 -79 -4 -3 -23 -17 -85 -19 -85 -1 0 -3 -19 -4 -43 -2 -24 -6 -45 -9
-49 -3 -3 -44 -5 -92 -5 -77 1 -85 -1 -86 -19 -1 -10 -2 -22 -4 -26 -7 -27
-17 -83 -20 -113 -2 -19 -4 -35 -5 -35 -1 0 -4 -18 -6 -40 -6 -47 -12 -80 -15
-80 -1 0 -2 -12 -3 -27 -1 -15 -5 -30 -8 -33 -4 -4 -4 -13 -1 -21 3 -8 0 -21
-7 -29 -8 -10 -9 -15 -1 -15 7 0 8 -8 1 -24 -5 -14 -9 -56 -8 -94 1 -38 -2
-74 -6 -80 -8 -14 -5 -14 86 -14 55 -1 67 -4 71 -18 3 -10 0 -23 -7 -30 -8 -8
-8 -13 0 -18 12 -7 11 -58 -2 -99 l-6 -23 461 0 c454 0 461 0 462 20 1 11 2
29 3 39 0 11 4 23 8 26 4 4 3 16 -2 26 -7 12 -7 20 0 24 6 4 8 11 5 16 -4 5
-1 9 5 9 6 0 9 4 5 9 -10 18 17 24 95 22 77 -2 78 -2 85 26 5 15 9 40 10 55 2
15 5 42 9 60 3 18 8 51 11 73 4 22 8 51 11 65 11 59 13 80 5 80 -5 0 -8 11 -7
25 0 14 4 25 8 25 3 0 5 8 3 18 -2 9 -4 22 -4 28 -1 12 -704 14 -716 2 -4 -4
-9 -20 -10 -35 -4 -46 -16 -117 -21 -125 -2 -3 0 -9 5 -13 8 -5 9 -45 1 -80
-6 -28 6 -30 162 -29 136 0 165 -2 175 -15 14 -20 -2 -55 -23 -47 -8 3 -14 2
-14 -2 0 -8 -98 -7 -106 1 -3 2 -21 1 -40 -3 -19 -4 -36 -4 -39 0 -3 4 -21 4
-40 0 -19 -4 -37 -4 -40 0 -3 4 -21 4 -40 0 -19 -4 -37 -4 -40 0 -3 4 -21 4
-40 0 -19 -4 -37 -5 -39 -1 -2 3 -20 6 -40 5 -31 -2 -34 0 -27 20 4 11 7 28 6
36 -1 8 1 20 4 25 3 6 7 21 8 35 4 32 10 74 19 125 4 22 8 55 8 72 1 18 3 33
6 33 3 0 7 17 8 37 2 21 5 40 8 43 3 3 38 6 77 7 40 1 82 2 94 2 18 1 22 9 29
64 8 63 10 73 14 82 1 3 3 9 4 14 2 14 16 26 16 13 0 -8 7 -9 27 -1 18 7 29 7
31 0 2 -5 11 -7 20 -4 21 9 64 8 85 0 9 -3 17 -3 17 2 0 4 13 8 30 7 16 -1 30
-4 30 -8 0 -4 12 -3 27 3 19 7 29 7 31 0 2 -6 8 -9 12 -6 9 6 3 -42 -7 -58 -3
-6 -1 -7 6 -3 9 6 11 -6 7 -48 l-4 -56 41 -1 c23 0 103 -1 179 -2 75 -1 134 1
132 5 -2 4 0 9 6 13 5 3 8 19 6 35 -2 16 0 27 4 25 18 -11 27 84 10 115 -7 13
-7 21 0 25 5 3 10 21 10 39 l0 34 -55 -2 c-30 0 -55 3 -55 9 0 5 -5 4 -11 -2
-6 -6 -19 -9 -29 -6 -15 4 -17 10 -10 33 5 16 6 31 3 34 -7 7 -10 66 -3 66 3
0 6 13 5 28 0 24 -4 28 -32 28 -17 0 -29 -4 -27 -8 6 -10 -10 -11 -20 -1 -4 4
-27 8 -52 8 -32 1 -43 -2 -40 -11 3 -8 -1 -11 -9 -7 -8 3 -13 8 -10 12 2 4 -2
8 -10 8 -8 0 -12 -4 -9 -9 3 -4 0 -8 -5 -8 -6 0 -11 5 -11 11 0 8 -6 7 -17 -2
-9 -8 -14 -9 -11 -4 4 7 -10 11 -38 11 -31 0 -43 -4 -40 -13 3 -7 -1 -10 -9
-6 -8 3 -13 8 -10 12 2 4 -2 8 -10 8 -8 0 -12 -4 -9 -9 3 -4 0 -8 -5 -8 -6 0
-11 5 -11 11 0 8 -4 8 -14 0 -11 -9 -15 -9 -19 1 -4 10 -6 10 -6 1 -1 -7 -6
-13 -12 -13 -5 0 -8 4 -5 8 3 5 -1 9 -9 9 -8 0 -12 -4 -9 -9 6 -10 -10 -11
-20 -1 -10 10 -87 12 -81 3 3 -5 -3 -7 -12 -5 -10 2 -18 4 -18 5 0 1 -8 3 -18
5 -13 2 -17 -1 -13 -12 6 -14 4 -14 -10 -2 -18 14 -86 21 -78 7 3 -4 1 -8 -5
-8 -5 0 -11 6 -14 13 -2 6 -7 -10 -12 -38z"/>
<path d="M1701 1587 c-6 -8 -8 -17 -4 -20 3 -4 2 -7 -4 -7 -6 0 -9 -13 -8 -30
1 -16 0 -30 -4 -30 -3 0 -7 -16 -8 -36 -3 -60 -4 -61 -97 -60 -70 1 -86 -2
-87 -14 -2 -22 -6 -50 -14 -95 -4 -22 -8 -47 -10 -55 -1 -10 -14 -15 -39 -15
-20 0 -36 -3 -36 -6 0 -4 -18 -3 -40 1 -22 4 -40 4 -40 -1 0 -4 -8 -6 -17 -4
-14 2 -18 -4 -19 -34 0 -20 -4 -54 -8 -76 -4 -22 -9 -53 -11 -70 -4 -31 -12
-70 -15 -70 -1 0 -3 -18 -4 -40 -2 -22 -6 -49 -9 -60 -6 -19 -19 -116 -20
-142 0 -7 -4 -13 -8 -13 -4 0 -1 -16 7 -35 8 -19 10 -35 5 -35 -4 0 -7 -10 -7
-23 1 -12 -2 -28 -7 -34 -10 -14 -10 -14 97 -17 57 -1 59 -2 60 -28 1 -16 -2
-28 -7 -28 -5 0 -2 -7 7 -15 12 -12 13 -22 6 -41 -6 -14 -10 -36 -10 -50 l0
-24 455 0 c250 0 456 3 456 8 1 4 3 24 4 45 1 21 7 43 13 49 8 8 8 17 1 30 -7
12 -6 18 1 18 6 0 9 4 6 8 -2 4 -1 14 4 22 6 10 30 13 89 13 44 -1 83 3 87 8
3 5 7 31 9 57 2 26 4 47 5 47 3 0 15 67 26 145 3 19 6 73 7 120 l2 85 -360 0
c-281 0 -360 -3 -361 -12 -1 -7 -2 -14 -3 -15 -1 -2 -4 -23 -7 -48 -6 -61 -8
-73 -17 -87 -5 -8 -3 -13 3 -13 6 0 9 -4 5 -9 -3 -5 -1 -13 5 -16 8 -5 8 -11
1 -19 -6 -7 -8 -16 -4 -20 4 -4 2 -10 -4 -14 -7 -5 -9 -13 -3 -21 6 -11 45
-14 177 -14 l170 0 -6 -31 c-7 -30 -8 -31 -71 -33 -36 -2 -82 -4 -102 -6 -21
-1 -38 0 -38 3 0 3 -22 5 -50 5 -27 0 -50 -4 -50 -10 0 -5 -5 -4 -12 3 -7 7
-17 8 -30 1 -10 -5 -18 -6 -18 -2 0 4 -36 7 -80 5 l-80 -3 5 31 c3 18 7 37 8
43 1 7 7 15 12 19 6 5 5 8 -3 8 -7 0 -11 3 -9 8 5 6 13 47 21 107 12 76 18
114 23 140 3 17 6 39 7 50 2 31 15 35 98 34 83 -2 109 9 103 42 -2 10 -1 19 3
19 4 0 7 17 6 39 0 21 5 46 12 56 13 18 84 29 84 13 0 -5 5 -6 11 -2 18 11 89
13 95 3 3 -5 13 -5 22 0 11 6 24 6 35 0 10 -6 17 -6 17 -1 0 12 53 10 62 -2 3
-5 5 -22 3 -38 -2 -15 1 -28 6 -28 6 0 8 -8 5 -17 -3 -10 -8 -32 -11 -50 l-5
-31 71 -4 c39 -2 73 0 74 3 2 3 29 2 59 -1 33 -4 60 -2 66 4 6 6 10 6 10 0 0
-5 18 -8 39 -6 39 4 51 18 55 64 0 9 7 23 14 30 14 14 17 102 2 93 -5 -3 -10
1 -10 9 0 8 5 18 10 21 6 3 10 22 10 41 0 33 -1 34 -38 32 -22 0 -44 2 -50 6
-6 3 -13 3 -16 -2 -3 -5 -18 -7 -34 -4 l-29 4 1 91 c1 86 0 90 -21 92 -12 1
-20 -2 -17 -7 3 -4 0 -8 -5 -8 -6 0 -11 4 -11 8 0 5 -7 9 -15 9 -8 0 -12 -4
-9 -9 3 -4 0 -8 -5 -8 -6 0 -11 4 -11 8 0 5 -7 9 -15 9 -8 0 -12 -4 -9 -9 3
-4 0 -8 -5 -8 -6 0 -11 4 -11 8 0 5 -7 9 -15 9 -8 0 -12 -4 -9 -9 3 -4 0 -8
-5 -8 -6 0 -11 5 -11 11 0 8 -6 7 -17 -2 -9 -8 -14 -9 -10 -3 3 6 0 11 -8 11
-8 0 -12 -4 -9 -9 3 -4 0 -8 -5 -8 -6 0 -11 5 -11 10 0 6 -5 10 -11 10 -5 0
-7 -4 -4 -10 3 -5 -1 -10 -9 -10 -9 0 -16 5 -16 10 0 6 -5 10 -11 10 -5 0 -8
-4 -5 -8 2 -4 -4 -8 -14 -8 -10 0 -17 3 -15 6 2 3 -15 5 -36 5 -31 1 -38 -2
-34 -14 4 -10 -1 -9 -16 5 -12 10 -19 13 -15 7 4 -7 2 -13 -3 -13 -6 0 -11 5
-11 10 0 6 -5 10 -11 10 -5 0 -8 -4 -5 -8 2 -4 -4 -8 -14 -8 -10 0 -17 3 -15
6 2 3 -7 5 -20 5 -13 0 -21 -3 -18 -7 2 -5 -1 -8 -6 -8 -6 0 -11 4 -11 8 0 5
-7 9 -15 9 -8 0 -12 -4 -9 -9 3 -4 0 -8 -5 -8 -6 0 -11 4 -11 8 0 5 -7 9 -15
9 -8 0 -12 -4 -9 -9 3 -4 0 -8 -5 -8 -6 0 -11 5 -11 11 0 8 -5 7 -16 -2 -13
-10 -17 -10 -25 2 -7 12 -10 12 -18 0 -6 -9 -11 -10 -15 -2 -9 15 -21 14 -35
-2z"/>
</g>
</svg>
